<svg width="274" height="47" viewBox="0 0 274 47" fill="none" xmlns="http://www.w3.org/2000/svg">
<g clip-path="url(#clip0_26_202)">
<path d="M0 0.60675V3.91969L30.8739 3.64057V0.60675H0Z" fill="url(#paint0_linear_26_202)"/>
<path d="M0 21.8435V25.1564L30.8739 24.8773V21.8435H0Z" fill="url(#paint1_linear_26_202)"/>
<path d="M0 43.6871V47L30.8739 46.7209V43.6871H0Z" fill="url(#paint2_linear_26_202)"/>
<path d="M100.649 0V3.31294L131.523 3.03382V0H100.649Z" fill="url(#paint3_linear_26_202)"/>
<path d="M100.649 21.2368V24.5497L131.523 24.2706V21.2368H100.649Z" fill="url(#paint4_linear_26_202)"/>
<path d="M100.649 43.0803V46.3933L131.523 46.1141V43.0803H100.649Z" fill="url(#paint5_linear_26_202)"/>
<path d="M41.655 0.60675H45.5945L63.909 42.1701L83.5077 0.60675H87.1385L66.0084 47H62.779L41.655 0.60675Z" fill="url(#paint6_linear_26_202)"/>
<path d="M152.641 47H149.331V0.60675H152.641L184.317 41.5634V0.60675H187.325V47H184.33L152.826 7.58455L152.641 47Z" fill="url(#paint7_linear_26_202)"/>
<path d="M200.724 0.60675H238.094V3.71339H221.144V47H217.754V3.33719H200.724V0.60675Z" fill="url(#paint8_linear_26_202)"/>
<path d="M261.632 10.0116H258.415V37.4859H261.632V10.0116Z" fill="url(#paint9_linear_26_202)"/>
<path d="M274.006 22.1651H246.047V25.3263H274.006V22.1651Z" fill="url(#paint10_linear_26_202)"/>
</g>
<defs>
<linearGradient id="paint0_linear_26_202" x1="0" y1="2.26322" x2="30.8739" y2="2.26322" gradientUnits="userSpaceOnUse">
<stop stop-color="#B51D44"/>
<stop offset="0.99" stop-color="#821B47"/>
</linearGradient>
<linearGradient id="paint1_linear_26_202" x1="0" y1="23.5" x2="0.617479" y2="23.5" gradientUnits="userSpaceOnUse">
<stop stop-color="#B51D44"/>
<stop offset="0.99" stop-color="#821B47"/>
</linearGradient>
<linearGradient id="paint2_linear_26_202" x1="0" y1="45.3435" x2="0.617479" y2="45.3435" gradientUnits="userSpaceOnUse">
<stop stop-color="#B51D44"/>
<stop offset="0.99" stop-color="#821B47"/>
</linearGradient>
<linearGradient id="paint3_linear_26_202" x1="100.649" y1="1.65647" x2="131.523" y2="1.65647" gradientUnits="userSpaceOnUse">
<stop stop-color="#B51D44"/>
<stop offset="0.99" stop-color="#821B47"/>
</linearGradient>
<linearGradient id="paint4_linear_26_202" x1="100.649" y1="22.8932" x2="131.523" y2="22.8932" gradientUnits="userSpaceOnUse">
<stop stop-color="#B51D44"/>
<stop offset="0.99" stop-color="#821B47"/>
</linearGradient>
<linearGradient id="paint5_linear_26_202" x1="100.649" y1="44.7368" x2="131.523" y2="44.7368" gradientUnits="userSpaceOnUse">
<stop stop-color="#B51D44"/>
<stop offset="0.99" stop-color="#821B47"/>
</linearGradient>
<linearGradient id="paint6_linear_26_202" x1="41.655" y1="23.8034" x2="87.1385" y2="23.8034" gradientUnits="userSpaceOnUse">
<stop stop-color="#B51D44"/>
<stop offset="0.99" stop-color="#821B47"/>
</linearGradient>
<linearGradient id="paint7_linear_26_202" x1="149.331" y1="23.8034" x2="187.325" y2="23.8034" gradientUnits="userSpaceOnUse">
<stop stop-color="#B51D44"/>
<stop offset="0.99" stop-color="#821B47"/>
</linearGradient>
<linearGradient id="paint8_linear_26_202" x1="200.724" y1="23.8034" x2="238.094" y2="23.8034" gradientUnits="userSpaceOnUse">
<stop stop-color="#B51D44"/>
<stop offset="0.99" stop-color="#821B47"/>
</linearGradient>
<linearGradient id="paint9_linear_26_202" x1="258.415" y1="23.7488" x2="261.632" y2="23.7488" gradientUnits="userSpaceOnUse">
<stop stop-color="#B51D44"/>
<stop offset="0.99" stop-color="#821B47"/>
</linearGradient>
<linearGradient id="paint10_linear_26_202" x1="246.047" y1="23.7488" x2="274" y2="23.7488" gradientUnits="userSpaceOnUse">
<stop stop-color="#B51D44"/>
<stop offset="0.99" stop-color="#821B47"/>
</linearGradient>
<clipPath id="clip0_26_202">
<rect width="274" height="47" fill="white"/>
</clipPath>
</defs>
</svg>
